solid OpenSCAD_Model
  facet normal -1 1.70096e-016 -1.42728e-016
    outer loop
      vertex -15 -35.7939 -17.8404
      vertex -15 -13.527 8.69616
      vertex -15 -9.57773 -2.15448
    endloop
  endfacet
  facet normal -1 1.70096e-016 -1.42728e-016
    outer loop
      vertex -15 -35.7939 -17.8404
      vertex -15 -9.57773 -2.15448
      vertex -15 -9.77294 -2.38712
    endloop
  endfacet
  facet normal -1 1.70096e-016 -1.42728e-016
    outer loop
      vertex -15 -35.7939 -17.8404
      vertex -15 -9.77294 -2.38712
      vertex -15 -5.12167 -15.1664
    endloop
  endfacet
  facet normal -1 1.70096e-016 -1.42728e-016
    outer loop
      vertex -15 -35.7939 -17.8404
      vertex -15 -5.12167 -15.1664
      vertex -15 -1.67911 -23.8558
    endloop
  endfacet
  facet normal -1 1.70096e-016 -1.42728e-016
    outer loop
      vertex -15 -4.87453 -15.0764
      vertex -15 -1.67911 -23.8558
      vertex -15 -5.12167 -15.1664
    endloop
  endfacet
  facet normal -2.22045e-016 -0.766044 0.642788
    outer loop
      vertex -15 -13.527 8.69616
      vertex -15 -35.7939 -17.8404
      vertex -15 -14.0318 8.09459
    endloop
  endfacet
  facet normal -2.22045e-016 -0.766044 0.642788
    outer loop
      vertex 15 -13.527 8.69616
      vertex -15 -13.527 8.69616
      vertex 15 -14.0318 8.09459
    endloop
  endfacet
  facet normal -2.22045e-016 -0.766044 0.642788
    outer loop
      vertex 15 -13.527 8.69616
      vertex 15 -14.0318 8.09459
      vertex 15 -28.6098 -9.27874
    endloop
  endfacet
  facet normal -2.22045e-016 -0.766044 0.642788
    outer loop
      vertex -15 -14.0318 8.09459
      vertex 15 -14.0318 8.09459
      vertex -15 -13.527 8.69616
    endloop
  endfacet
  facet normal 1.11022e-016 -0.173648 -0.984808
    outer loop
      vertex -15 -35.7939 -17.8404
      vertex -15 -1.67911 -23.8558
      vertex -15 -35.5189 -17.8889
    endloop
  endfacet
  facet normal 1.11022e-016 -0.173648 -0.984808
    outer loop
      vertex -15 -35.5189 -17.8889
      vertex -15 -1.67911 -23.8558
      vertex 15 -1.67911 -23.8558
    endloop
  endfacet
  facet normal 1.11022e-016 -0.173648 -0.984808
    outer loop
      vertex -15 -35.5189 -17.8889
      vertex 15 -1.67911 -23.8558
      vertex 15 -35.5189 -17.8889
    endloop
  endfacet
  facet normal 1.11022e-016 0.939693 0.34202
    outer loop
      vertex -15 -4.87453 -15.0764
      vertex 15 -4.87453 -15.0764
      vertex -15 -1.67911 -23.8558
    endloop
  endfacet
  facet normal 1.11022e-016 0.939693 0.34202
    outer loop
      vertex 15 -1.67911 -23.8558
      vertex 15 -4.87453 -15.0764
      vertex 15 -9.57773 -2.15448
    endloop
  endfacet
  facet normal 1.11022e-016 0.939693 0.34202
    outer loop
      vertex -15 -1.67911 -23.8558
      vertex 15 -4.87453 -15.0764
      vertex 15 -1.67911 -23.8558
    endloop
  endfacet
  facet normal 0 0.34202 -0.939693
    outer loop
      vertex -15 -4.87453 -15.0764
      vertex -15 0.217655 -13.223
      vertex -14.691 0.128994 -13.2553
    endloop
  endfacet
  facet normal 0 0.34202 -0.939693
    outer loop
      vertex -15 -5.12167 -15.1664
      vertex -15 0.217655 -13.223
      vertex -15 -4.87453 -15.0764
    endloop
  endfacet
  facet normal 0 0.34202 -0.939693
    outer loop
      vertex -15 -4.87453 -15.0764
      vertex -14.691 0.128994 -13.2553
      vertex 15 0.128994 -13.2553
    endloop
  endfacet
  facet normal 0 0.34202 -0.939693
    outer loop
      vertex -15 -4.87453 -15.0764
      vertex 15 0.128994 -13.2553
      vertex 15 -4.87453 -15.0764
    endloop
  endfacet
  facet normal -1 0 0
    outer loop
      vertex -15 2.51937 5.594
      vertex -15 5.12167 15.1664
      vertex -15 13.6722 -8.32596
    endloop
  endfacet
  facet normal -1 0 0
    outer loop
      vertex -15 2.16225 6.32115
      vertex -15 5.12167 15.1664
      vertex -15 2.51937 5.594
    endloop
  endfacet
  facet normal -1 0 0
    outer loop
      vertex -15 -5.33445 4.06588
      vertex -15 5.12167 15.1664
      vertex -15 1.2434 6.46002
    endloop
  endfacet
  facet normal -1 0 0
    outer loop
      vertex -15 2.09405 6.46002
      vertex -15 5.12167 15.1664
      vertex -15 2.16225 6.32115
    endloop
  endfacet
  facet normal -1 0 0
    outer loop
      vertex -15 1.2434 6.46002
      vertex -15 5.12167 15.1664
      vertex -15 2.09405 6.46002
    endloop
  endfacet
  facet normal -1 0 0
    outer loop
      vertex -15 -13.425 8.41591
      vertex -15 5.12167 15.1664
      vertex -15 -5.33445 4.06588
    endloop
  endfacet
  facet normal -1 0 0
    outer loop
      vertex -15 -13.425 8.41591
      vertex -15 -5.33445 4.06588
      vertex -15 -9.57773 -2.15448
    endloop
  endfacet
  facet normal -1 0 0
    outer loop
      vertex -15 0.217655 -13.223
      vertex -15 -9.57773 -2.15448
      vertex -15 -5.75978 3.19986
    endloop
  endfacet
  facet normal -1 0 0
    outer loop
      vertex -15 -5.33445 4.06588
      vertex -15 -5.57557 3.57492
      vertex -15 -9.57773 -2.15448
    endloop
  endfacet
  facet normal -1 0 0
    outer loop
      vertex -15 -5.57557 3.57492
      vertex -15 -5.75978 3.19986
      vertex -15 -9.57773 -2.15448
    endloop
  endfacet
  facet normal -1 0 0
    outer loop
      vertex -15 -9.57773 -2.15448
      vertex -15 0.217655 -13.223
      vertex -15 -5.12167 -15.1664
    endloop
  endfacet
  facet normal -1 0 0
    outer loop
      vertex -15 2.51937 5.594
      vertex -15 13.6722 -8.32596
      vertex -15 8.29779 -10.2821
    endloop
  endfacet
  facet normal -1 0 0
    outer loop
      vertex -15 -9.57773 -2.15448
      vertex -15 -5.12167 -15.1664
      vertex -15 -9.77294 -2.38712
    endloop
  endfacet
  facet normal 1.11022e-016 0.939693 0.34202
    outer loop
      vertex -15 -13.527 8.69616
      vertex 15 -13.527 8.69616
      vertex -15 -13.425 8.41591
    endloop
  endfacet
  facet normal 1.11022e-016 0.939693 0.34202
    outer loop
      vertex -15 -13.527 8.69616
      vertex -15 -13.425 8.41591
      vertex -15 -9.57773 -2.15448
    endloop
  endfacet
  facet normal 1.11022e-016 0.939693 0.34202
    outer loop
      vertex -15 -13.425 8.41591
      vertex 15 -13.527 8.69616
      vertex 15 -13.425 8.41591
    endloop
  endfacet
  facet normal 1 -1.70096e-016 1.42728e-016
    outer loop
      vertex 15 -13.527 8.69616
      vertex 15 -28.6098 -9.27874
      vertex 15 -28.5627 -9.59887
    endloop
  endfacet
  facet normal 1 -1.70096e-016 1.42728e-016
    outer loop
      vertex 15 -13.6722 8.32596
      vertex 15 -13.527 8.69616
      vertex 15 -28.5627 -9.59887
    endloop
  endfacet
  facet normal 1 -1.70096e-016 1.42728e-016
    outer loop
      vertex 15 -35.5189 -17.8889
      vertex 15 -1.67911 -23.8558
      vertex 15 -28.5627 -9.59887
    endloop
  endfacet
  facet normal 1 -1.70096e-016 1.42728e-016
    outer loop
      vertex 15 -1.67911 -23.8558
      vertex 15 -9.77294 -2.38712
      vertex 15 -28.5627 -9.59887
    endloop
  endfacet
  facet normal 1 -1.70096e-016 1.42728e-016
    outer loop
      vertex 15 -1.67911 -23.8558
      vertex 15 -9.57773 -2.15448
      vertex 15 -9.77294 -2.38712
    endloop
  endfacet
  facet normal 1 -1.70096e-016 1.42728e-016
    outer loop
      vertex 15 -13.425 8.41591
      vertex 15 -13.527 8.69616
      vertex 15 -13.6722 8.32596
    endloop
  endfacet
  facet normal 1 -1.70096e-016 1.42728e-016
    outer loop
      vertex 15 -9.77294 -2.38712
      vertex 15 -13.6722 8.32596
      vertex 15 -28.5627 -9.59887
    endloop
  endfacet
  facet normal 1 2.08654e-016 1.98404e-016
    outer loop
      vertex 15 -28.6098 -9.27874
      vertex 15 -14.0318 8.09459
      vertex 15 -47.8716 14.0615
    endloop
  endfacet
  facet normal 1 2.08654e-016 1.98404e-016
    outer loop
      vertex 15 -36.0236 -18.4905
      vertex 15 -28.6098 -9.27874
      vertex 15 -47.8716 14.0615
    endloop
  endfacet
  facet normal 1 2.08654e-016 1.98404e-016
    outer loop
      vertex 15 -28.5627 -9.59887
      vertex 15 -28.6098 -9.27874
      vertex 15 -36.0236 -18.4905
    endloop
  endfacet
  facet normal -2.31622e-016 0.173648 0.984808
    outer loop
      vertex 15 -14.0318 8.09459
      vertex -15 -14.0318 8.09459
      vertex -15 -47.8716 14.0615
    endloop
  endfacet
  facet normal -2.31622e-016 0.173648 0.984808
    outer loop
      vertex 15 -47.8716 14.0615
      vertex 15 -14.0318 8.09459
      vertex -15 -47.8716 14.0615
    endloop
  endfacet
  facet normal -1 -2.08654e-016 -1.98404e-016
    outer loop
      vertex -15 -14.0318 8.09459
      vertex -15 -35.7939 -17.8404
      vertex -15 -47.8716 14.0615
    endloop
  endfacet
  facet normal -1 -2.08654e-016 -1.98404e-016
    outer loop
      vertex -15 -36.0236 -18.4905
      vertex -15 -35.7939 -17.8404
      vertex -15 -35.5189 -17.8889
    endloop
  endfacet
  facet normal -1 -2.08654e-016 -1.98404e-016
    outer loop
      vertex -15 -47.8716 14.0615
      vertex -15 -35.7939 -17.8404
      vertex -15 -36.0236 -18.4905
    endloop
  endfacet
  facet normal -3.23061e-017 0.766044 -0.642788
    outer loop
      vertex -15 -35.5189 -17.8889
      vertex 15 -35.5189 -17.8889
      vertex -15 -36.0236 -18.4905
    endloop
  endfacet
  facet normal -3.23061e-017 0.766044 -0.642788
    outer loop
      vertex 15 -36.0236 -18.4905
      vertex 15 -35.5189 -17.8889
      vertex 15 -28.5627 -9.59887
    endloop
  endfacet
  facet normal -3.23061e-017 0.766044 -0.642788
    outer loop
      vertex -15 -36.0236 -18.4905
      vertex 15 -35.5189 -17.8889
      vertex 15 -36.0236 -18.4905
    endloop
  endfacet
  facet normal 1 0 0
    outer loop
      vertex 15 -9.57773 -2.15448
      vertex 15 -13.6722 8.32596
      vertex 15 -9.77294 -2.38712
    endloop
  endfacet
  facet normal 1 0 0
    outer loop
      vertex 15 -5.86018 3.19986
      vertex 15 -13.6722 8.32596
      vertex 15 -9.57773 -2.15448
    endloop
  endfacet
  facet normal 1 0 0
    outer loop
      vertex 15 2.14425 6.46002
      vertex 15 2.61978 5.594
      vertex 15 5.12167 15.1664
    endloop
  endfacet
  facet normal 1 0 0
    outer loop
      vertex 15 -5.38465 4.06588
      vertex 15 -13.6722 8.32596
      vertex 15 -5.86018 3.19986
    endloop
  endfacet
  facet normal 1 0 0
    outer loop
      vertex 15 2.61978 5.594
      vertex 15 8.38645 -10.2498
      vertex 15 5.12167 15.1664
    endloop
  endfacet
  facet normal 1 0 0
    outer loop
      vertex 15 5.12167 15.1664
      vertex 15 -13.6722 8.32596
      vertex 15 -5.38465 4.06588
    endloop
  endfacet
  facet normal 1 0 0
    outer loop
      vertex 15 2.14425 6.46002
      vertex 15 5.12167 15.1664
      vertex 15 1.19319 6.46002
    endloop
  endfacet
  facet normal 1 0 0
    outer loop
      vertex 15 13.6722 -8.32596
      vertex 15 5.12167 15.1664
      vertex 15 8.38645 -10.2498
    endloop
  endfacet
  facet normal 1 0 0
    outer loop
      vertex 15 -5.38465 4.06588
      vertex 15 1.19319 6.46002
      vertex 15 5.12167 15.1664
    endloop
  endfacet
  facet normal 1 0 0
    outer loop
      vertex 15 0.128994 -13.2553
      vertex 15 -9.57773 -2.15448
      vertex 15 -4.87453 -15.0764
    endloop
  endfacet
  facet normal 1 0 0
    outer loop
      vertex 15 0.128994 -13.2553
      vertex 15 -5.86018 3.19986
      vertex 15 -9.57773 -2.15448
    endloop
  endfacet
  facet normal 0 0.939693 0.34202
    outer loop
      vertex 15 0.128994 -13.2553
      vertex -14.691 0.128994 -13.2553
      vertex 15 -5.86018 3.19986
    endloop
  endfacet
  facet normal 0 0.939693 0.34202
    outer loop
      vertex 15 -5.86018 3.19986
      vertex -14.691 0.128994 -13.2553
      vertex -14.691 -5.86018 3.19986
    endloop
  endfacet
  facet normal 0.292017 0.898734 0.327113
    outer loop
      vertex -14.691 0.128994 -13.2553
      vertex -15 0.217655 -13.223
      vertex -14.691 -5.86018 3.19986
    endloop
  endfacet
  facet normal 0.292017 0.898734 0.327113
    outer loop
      vertex -14.691 -5.86018 3.19986
      vertex -15 0.217655 -13.223
      vertex -15 -5.75978 3.19986
    endloop
  endfacet
  facet normal 0.279981 0.861693 -0.423197
    outer loop
      vertex -15 -5.57557 3.57492
      vertex -14.691 -5.86018 3.19986
      vertex -15 -5.75978 3.19986
    endloop
  endfacet
  facet normal 0.27998 0.861693 -0.423198
    outer loop
      vertex -14.8455 -5.38465 4.06588
      vertex -14.691 -5.86018 3.19986
      vertex -15 -5.33445 4.06588
    endloop
  endfacet
  facet normal 0.27998 0.861693 -0.423198
    outer loop
      vertex -15 -5.33445 4.06588
      vertex -14.691 -5.86018 3.19986
      vertex -15 -5.57557 3.57492
    endloop
  endfacet
  facet normal 0.110449 0.339928 -0.933943
    outer loop
      vertex -14.8455 1.19319 6.46002
      vertex -14.8455 -5.38465 4.06588
      vertex -15 1.2434 6.46002
    endloop
  endfacet
  facet normal 0.110449 0.339928 -0.933943
    outer loop
      vertex -15 1.2434 6.46002
      vertex -14.8455 -5.38465 4.06588
      vertex -15 -5.33445 4.06588
    endloop
  endfacet
  facet normal 0 0 -1
    outer loop
      vertex -14.8455 2.14425 6.46002
      vertex 15 2.14425 6.46002
      vertex -15 2.09405 6.46002
    endloop
  endfacet
  facet normal 0 0 -1
    outer loop
      vertex -15 2.09405 6.46002
      vertex 15 2.14425 6.46002
      vertex 15 1.19319 6.46002
    endloop
  endfacet
  facet normal 0 0 -1
    outer loop
      vertex -15 2.09405 6.46002
      vertex 15 1.19319 6.46002
      vertex -14.8455 1.19319 6.46002
    endloop
  endfacet
  facet normal 0 0 -1
    outer loop
      vertex -15 2.09405 6.46002
      vertex -14.8455 1.19319 6.46002
      vertex -15 1.2434 6.46002
    endloop
  endfacet
  facet normal 0.279981 -0.861693 -0.423197
    outer loop
      vertex -15 2.16225 6.32115
      vertex -14.8455 2.14425 6.46002
      vertex -15 2.09405 6.46002
    endloop
  endfacet
  facet normal 0.279981 -0.861692 -0.423198
    outer loop
      vertex -15 2.51937 5.594
      vertex -14.691 2.61978 5.594
      vertex -14.8455 2.14425 6.46002
    endloop
  endfacet
  facet normal 0.279981 -0.861692 -0.423198
    outer loop
      vertex -15 2.16225 6.32115
      vertex -15 2.51937 5.594
      vertex -14.8455 2.14425 6.46002
    endloop
  endfacet
  facet normal 0.292017 -0.898734 -0.327113
    outer loop
      vertex -15 8.29779 -10.2821
      vertex -14.691 8.38645 -10.2498
      vertex -14.691 2.61978 5.594
    endloop
  endfacet
  facet normal 0.292017 -0.898734 -0.327113
    outer loop
      vertex -15 2.51937 5.594
      vertex -15 8.29779 -10.2821
      vertex -14.691 2.61978 5.594
    endloop
  endfacet
  facet normal 0 0.34202 -0.939693
    outer loop
      vertex -15 8.29779 -10.2821
      vertex -15 13.6722 -8.32596
      vertex -14.691 8.38645 -10.2498
    endloop
  endfacet
  facet normal 0 0.34202 -0.939693
    outer loop
      vertex -14.691 8.38645 -10.2498
      vertex -15 13.6722 -8.32596
      vertex 15 13.6722 -8.32596
    endloop
  endfacet
  facet normal 0 0.34202 -0.939693
    outer loop
      vertex -14.691 8.38645 -10.2498
      vertex 15 13.6722 -8.32596
      vertex 15 8.38645 -10.2498
    endloop
  endfacet
  facet normal 0 0.939693 0.34202
    outer loop
      vertex -15 5.12167 15.1664
      vertex 15 5.12167 15.1664
      vertex -15 13.6722 -8.32596
    endloop
  endfacet
  facet normal 0 0.939693 0.34202
    outer loop
      vertex -15 13.6722 -8.32596
      vertex 15 5.12167 15.1664
      vertex 15 13.6722 -8.32596
    endloop
  endfacet
  facet normal 0 -0.34202 0.939693
    outer loop
      vertex -15 5.12167 15.1664
      vertex -15 -13.425 8.41591
      vertex 15 -13.425 8.41591
    endloop
  endfacet
  facet normal 0 -0.34202 0.939693
    outer loop
      vertex 15 5.12167 15.1664
      vertex -15 5.12167 15.1664
      vertex 15 -13.425 8.41591
    endloop
  endfacet
  facet normal 0 -0.34202 0.939693
    outer loop
      vertex 15 -13.6722 8.32596
      vertex 15 5.12167 15.1664
      vertex 15 -13.425 8.41591
    endloop
  endfacet
  facet normal 2.63929e-016 -0.939693 -0.34202
    outer loop
      vertex 15 -47.8716 14.0615
      vertex -15 -47.8716 14.0615
      vertex -15 -36.0236 -18.4905
    endloop
  endfacet
  facet normal 2.63929e-016 -0.939693 -0.34202
    outer loop
      vertex 15 -36.0236 -18.4905
      vertex 15 -47.8716 14.0615
      vertex -15 -36.0236 -18.4905
    endloop
  endfacet
  facet normal 0 -0.939693 -0.34202
    outer loop
      vertex -14.691 8.38645 -10.2498
      vertex 15 8.38645 -10.2498
      vertex 15 2.61978 5.594
    endloop
  endfacet
  facet normal 0 -0.939693 -0.34202
    outer loop
      vertex -14.691 2.61978 5.594
      vertex -14.691 8.38645 -10.2498
      vertex 15 2.61978 5.594
    endloop
  endfacet
  facet normal 0 -0.876551 -0.481309
    outer loop
      vertex -14.691 2.61978 5.594
      vertex 15 2.61978 5.594
      vertex 15 2.14425 6.46002
    endloop
  endfacet
  facet normal 0 -0.876551 -0.481309
    outer loop
      vertex -14.8455 2.14425 6.46002
      vertex -14.691 2.61978 5.594
      vertex 15 2.14425 6.46002
    endloop
  endfacet
  facet normal 0 0.34202 -0.939693
    outer loop
      vertex 15 1.19319 6.46002
      vertex 15 -5.38465 4.06588
      vertex -14.8455 1.19319 6.46002
    endloop
  endfacet
  facet normal 0 0.34202 -0.939693
    outer loop
      vertex -14.8455 1.19319 6.46002
      vertex 15 -5.38465 4.06588
      vertex -14.8455 -5.38465 4.06588
    endloop
  endfacet
  facet normal 0 0.876551 -0.481309
    outer loop
      vertex 15 -5.86018 3.19986
      vertex -14.691 -5.86018 3.19986
      vertex 15 -5.38465 4.06588
    endloop
  endfacet
  facet normal 0 0.876551 -0.481309
    outer loop
      vertex 15 -5.38465 4.06588
      vertex -14.691 -5.86018 3.19986
      vertex -14.8455 -5.38465 4.06588
    endloop
  endfacet
endsolid OpenSCAD_Model
